<svg xmlns="http://www.w3.org/2000/svg" viewBox="0 0 24 24" fill="none" stroke="#e6c555" stroke-width="1.5" stroke-linecap="round" stroke-linejoin="round">
  <path d="M17.5 3.5c-1.1-.8-2.2-.8-3.4 0l-6.7 4.7c-.8.6-1.4 1.4-1.7 2.4L4 15.5c-.4 1.3-.4 2.7 0 4 .4 1.3 1.2 2.4 2.2 3.2.9.8 2 1.3 3.2 1.3 1.3 0 2.4-.5 3.3-1.3.9-.8 1.6-1.9 2-3.2.4-1.3.4-2.7 0-4l-1.6-4.8 2.9-2c.5-.4.8-1 .8-1.7s-.3-1.3-.8-1.7l1.5-1c.5-.3.7-.9.7-1.5-.1-.5-.5-1-.7-1.3z"/>
  <path d="M14 6l-6.7 4.7M9 14l6-4.2"/>
  <circle cx="12" cy="8" r=".5"/>
  <circle cx="14" cy="6.5" r=".5"/>
  <circle cx="16" cy="5" r=".5"/>
  <path d="M11.5 16.5l-1.8-5.4"/>
  <path d="M14.5 12.5l1.5 4.5c.4 1.3.4 2.7 0 4-.4 1.3-1.1 2.4-2 3.2-.9.8-2 1.3-3.3 1.3-1.2 0-2.3-.5-3.2-1.3"/>
</svg> 